<?xml version="1.0" encoding="utf-8"?>
<!-- Generator: Adobe Illustrator 19.1.0, SVG Export Plug-In . SVG Version: 6.00 Build 0)  -->
<svg version="1.1" id="Слой_1" xmlns="http://www.w3.org/2000/svg" xmlns:xlink="http://www.w3.org/1999/xlink" x="0px" y="0px"
	 viewBox="-331 288.3 179 19" style="enable-background:new -331 288.3 179 19;" xml:space="preserve">
<style type="text/css">
	.st0{clip-path:url(#SVGID_2_);}
	.st1{fill:#0088F7;}
</style>
<g>
	<defs>
		<rect id="SVGID_1_" x="-331" y="288.3" width="179" height="19"/>
	</defs>
	<clipPath id="SVGID_2_">
		<use xlink:href="#SVGID_1_"  style="overflow:visible;"/>
	</clipPath>
	<g class="st0">
		<path class="st1" d="M-295.4,288.6h3.2V307h-4v-7.4l0-4.2l-9.3,11.6h-3.3v-18.4h4v6.9l0,4.7L-295.4,288.6z"/>
		<path class="st1" d="M-284.5,306c-1.4-0.8-2.5-1.9-3.3-3.3c-0.8-1.4-1.2-3.1-1.2-5c0-1.9,0.4-3.5,1.2-4.9c0.8-1.4,1.9-2.6,3.3-3.3
			c1.4-0.8,3-1.2,4.9-1.2c2.6,0,4.8,0.9,6.6,2.8l-2.4,2.7c-0.5-0.5-1.2-1-1.9-1.3c-0.7-0.3-1.5-0.5-2.3-0.5c-1.6,0-2.9,0.5-3.9,1.6
			c-1,1.1-1.5,2.4-1.5,4.1c0,1.7,0.5,3.1,1.5,4.1c1,1.1,2.3,1.6,3.9,1.6c0.8,0,1.7-0.2,2.4-0.5c0.7-0.3,1.4-0.8,1.9-1.4l2.5,2.8
			c-1,1-2,1.7-3.1,2.2c-1.2,0.5-2.4,0.7-3.7,0.7C-281.4,307.2-283.1,306.8-284.5,306z"/>
		<path class="st1" d="M-269.5,288.6h16.6V307h-4v-14.6h-8.6V307h-4V288.6z"/>
		<path class="st1" d="M-234,290.8c1.6,1.7,2.4,4,2.4,7c0,0.3,0,0.8-0.1,1.4h-14c0.2,1.3,0.7,2.4,1.7,3.2s2.3,1.2,3.8,1.2
			c1,0,2-0.2,2.9-0.5c0.9-0.3,1.6-0.8,2.2-1.4l2.4,2.4c-0.9,1-2,1.7-3.3,2.3c-1.3,0.6-2.8,0.9-4.3,0.8c-1.9,0-3.6-0.4-5-1.2
			c-1.4-0.8-2.6-1.9-3.3-3.4c-0.8-1.4-1.2-3.1-1.2-5c0-1.9,0.4-3.5,1.1-4.9c0.7-1.4,1.8-2.5,3.2-3.3c1.4-0.8,3-1.2,4.8-1.2
			C-237.8,288.3-235.6,289.1-234,290.8z M-244,292.9c-0.9,0.7-1.4,1.8-1.7,3.1h10.2c-0.1-1.3-0.7-2.3-1.6-3.1
			c-0.9-0.8-2.1-1.1-3.5-1.1C-242,291.8-243.1,292.2-244,292.9L-244,292.9z"/>
		<path class="st1" d="M-175.9,290.8c1.6,1.7,2.4,4,2.4,7c0,0.3,0,0.8-0.1,1.4h-14c0.2,1.3,0.7,2.4,1.7,3.2c1,0.8,2.3,1.2,3.8,1.2
			c1,0,2-0.2,2.9-0.5c0.9-0.3,1.6-0.8,2.2-1.4l2.4,2.4c-0.9,1-2,1.7-3.3,2.3c-1.3,0.6-2.8,0.9-4.3,0.8c-1.9,0-3.6-0.4-5-1.2
			c-1.4-0.8-2.6-1.9-3.3-3.4c-0.8-1.4-1.2-3.1-1.2-5c0-1.9,0.4-3.5,1.1-4.9c0.7-1.4,1.8-2.5,3.2-3.3c1.4-0.8,3-1.2,4.8-1.2
			C-179.8,288.3-177.6,289.1-175.9,290.8z M-185.9,292.9c-0.9,0.7-1.4,1.8-1.7,3.1h10.2c-0.1-1.3-0.7-2.3-1.6-3.1
			c-0.9-0.8-2.1-1.1-3.5-1.1C-183.9,291.8-185,292.2-185.9,292.9L-185.9,292.9z"/>
		<path class="st1" d="M-213.4,288.6v3.8h-5.9V307h-4v-14.6h-5.9v-3.8H-213.4z"/>
		<path class="st1" d="M-194.9,288.6V307h-3.9v-6.7c-1.2,1-2.7,1.5-4.6,1.5c-2,0-3.6-0.7-4.9-2c-1.2-1.3-1.9-3.1-1.9-5.3v-5.9h3.8
			v5.4c0,2.8,1.2,4.2,3.7,4.2c1.2,0,2.2-0.4,2.8-1.1c0.7-0.7,1-1.7,1-3v-5.5H-194.9z"/>
		<path class="st1" d="M-316.3,288.6v1.9c-1.7-1.2-3.7-1.9-5.7-1.8c-2.1,0.1-4,0.8-5.6,2.1c-1.6,1.3-2.7,3.2-3.1,5.2
			c-0.4,2-0.1,4.1,0.8,6c0.9,1.8,2.4,3.3,4.3,4.2c1.9,0.9,4,1.1,6,0.6c2-0.5,3.8-1.6,5.1-3.2c1.3-1.6,2-3.6,2-5.7v-9.3H-316.3z
			 M-321.8,303.3c-1.1,0-2.1-0.3-3.1-0.9c-0.9-0.6-1.6-1.5-2-2.5c-0.4-1-0.5-2.1-0.3-3.2c0.2-1.1,0.7-2,1.5-2.8s1.7-1.3,2.8-1.5
			c1.1-0.2,2.2-0.1,3.2,0.3c1,0.4,1.9,1.1,2.5,2c0.6,0.9,0.9,2,0.9,3.1c0,1.5-0.6,2.9-1.6,3.9C-319,302.7-320.4,303.3-321.8,303.3z"
			/>
		<path class="st1" d="M-166.7,307v-1.9c1.7,1.2,3.7,1.9,5.7,1.8c2.1-0.1,4-0.8,5.6-2.1c1.6-1.3,2.7-3.2,3.1-5.2
			c0.4-2,0.1-4.1-0.8-6s-2.4-3.3-4.3-4.2c-1.9-0.9-4-1.1-6-0.6c-2,0.5-3.8,1.6-5.1,3.2c-1.3,1.6-2,3.6-2,5.7v9.3H-166.7z
			 M-161.2,292.2c1.1,0,2.1,0.3,3.1,0.9c0.9,0.6,1.6,1.5,2,2.5c0.4,1,0.5,2.1,0.3,3.2c-0.2,1.1-0.7,2-1.5,2.8
			c-0.8,0.8-1.7,1.3-2.8,1.5c-1.1,0.2-2.2,0.1-3.2-0.3c-1-0.4-1.9-1.1-2.5-2c-0.6-0.9-0.9-2-0.9-3.1c0-1.5,0.6-2.9,1.6-3.9
			S-162.6,292.2-161.2,292.2z"/>
	</g>
</g>
</svg>
